<?xml version="1.0"?>
<svg xmlns="http://www.w3.org/2000/svg" xmlns:xlink="http://www.w3.org/1999/xlink" version="1.1" width="246.51447" height="168.24303" viewBox="0,0,246.51447,168.24303">
  <g transform="translate(-24.78622,-167.46774)">
    <g data-paper-data="{&quot;isPaintingLayer&quot;:true}" fill-rule="nonzero" stroke="none" stroke-width="0" stroke-linecap="butt" stroke-linejoin="miter" stroke-miterlimit="10" stroke-dasharray="" stroke-dashoffset="0" style="mix-blend-mode: normal">
      <path d="M84.92393,190.75758c0,-12.86262 10.42722,-23.28984 23.28984,-23.28984c12.86262,0 23.28984,10.42722 23.28984,23.28984c0,12.86262 -10.42722,23.28984 -23.28984,23.28984c-12.86262,0 -23.28984,-10.42722 -23.28984,-23.28984z" fill="#6694ff"/>
      <path d="M86.31436,312.42093c0,-12.86262 10.42722,-23.28984 23.28984,-23.28984c12.86262,0 23.28984,10.42722 23.28984,23.28984c0,12.86262 -10.42722,23.28984 -23.28984,23.28984c-12.86262,0 -23.28984,-10.42722 -23.28984,-23.28984z" fill="#b8ff66"/>
      <g>
        <path d="M47.58549,274.28738c-12.85977,-0.27099 -23.06499,-10.91558 -22.794,-23.77535c0.27099,-12.85977 10.91558,-23.06499 23.77535,-22.794c12.85977,0.27099 23.06499,10.91558 22.794,23.77535c-0.27099,12.85977 -10.91558,23.06499 -23.77535,22.794z" fill="#66eeff"/>
        <path d="M169.25113,275.46048c-12.85977,-0.27099 -23.06499,-10.91558 -22.794,-23.77535c0.27099,-12.85977 10.91558,-23.06499 23.77535,-22.794c12.85977,0.27099 23.06499,10.91558 22.794,23.77535c-0.27099,12.85977 -10.91558,23.06499 -23.77535,22.794z" fill="#ff66e1"/>
      </g>
      <g>
        <path d="M81.93357,311.15521c-9.2343,8.95404 -23.97886,8.72684 -32.9329,-0.50745c-8.95404,-9.2343 -8.72684,-23.97886 0.50745,-32.9329c9.2343,-8.95404 23.97886,-8.72684 32.9329,0.50745c8.95404,9.2343 8.72684,23.97886 -0.50745,32.9329z" fill="#7766ff"/>
        <path d="M168.30985,225.46366c-9.2343,8.95404 -23.97886,8.72684 -32.9329,-0.50745c-8.95404,-9.2343 -8.72684,-23.97886 0.50745,-32.9329c9.2343,-8.95404 23.97886,-8.72684 32.9329,0.50745c8.95404,9.2343 8.72684,23.97886 -0.50745,32.9329z" fill="#c566ff"/>
      </g>
      <g data-paper-data="{&quot;index&quot;:null}">
        <path d="M135.37695,278.22231c8.95404,-9.2343 23.6986,-9.46149 32.9329,-0.50745c9.2343,8.95404 9.46149,23.6986 0.50745,32.93291c-8.95404,9.2343 -23.6986,9.46149 -32.9329,0.50745c-9.2343,-8.95404 -9.46149,-23.6986 -0.50745,-32.93291z" fill="#ffb366"/>
        <path d="M49.00067,192.53076c8.95404,-9.2343 23.6986,-9.46149 32.9329,-0.50745c9.2343,8.95404 9.46149,23.6986 0.50745,32.93291c-8.95404,9.2343 -23.6986,9.46149 -32.9329,0.50745c-9.2343,-8.95404 -9.46149,-23.6986 -0.50745,-32.9329z" fill="#ff6666"/>
      </g>
      <path d="M123.78456,258.71659c0,4.27893 -5.96627,7.7477 -13.32604,7.7477c-7.35977,0 -13.32604,-3.46876 -13.32604,-7.7477c0,-4.27893 5.96627,-7.7477 13.32604,-7.7477c7.35977,0 13.32604,3.46876 13.32604,7.7477z" fill="#fffc66"/>
      <path d="M271.30069,185.88825z" fill="#fffc66"/>
      <path d="M62.35013,249.00381c0,-26.66568 21.61681,-48.28249 48.28249,-48.28249c26.66568,0 48.28249,21.61681 48.28249,48.28249c0,26.66568 -21.61681,48.28249 -48.28249,48.28249c-26.66568,0 -48.28249,-21.61681 -48.28249,-48.28249z" fill="#fffc66"/>
      <path d="M103.95046,241.36175c0,4.62125 -2.22001,8.36751 -4.95853,8.36751c-2.73852,0 -4.95853,-3.74626 -4.95853,-8.36751c0,-4.62125 2.22001,-8.36751 4.95853,-8.36751c2.73852,0 4.95853,3.74626 4.95853,8.36751z" fill="#000000"/>
      <path d="M127.54493,241.40322c0,4.62125 -2.22001,8.36751 -4.95853,8.36751c-2.73852,0 -4.95852,-3.74626 -4.95852,-8.36751c0,-4.62125 2.22001,-8.36751 4.95852,-8.36751c2.73852,0 4.95853,3.74626 4.95853,8.36751z" fill="#000000"/>
      <path d="M121.3053,265.22466c0,4.10778 -4.85627,7.43779 -10.84677,7.43779c-5.99051,0 -10.84677,-3.33001 -10.84677,-7.43779c0,-4.10778 4.85627,-7.43779 10.84677,-7.43779c5.99051,0 10.84677,3.33001 10.84677,7.43779z" fill="#000000"/>
      <path d="M120.06567,260.26613c0,4.10778 -4.02376,7.43779 -8.98733,7.43779c-4.96356,0 -8.98733,-3.33001 -8.98733,-7.43779c0,-4.10778 4.02376,-7.43779 8.98733,-7.43779c4.96356,0 8.98733,3.33001 8.98733,7.43779z" fill="#fffc66"/>
    </g>
  </g>
</svg>
